# xmcd
#
# Track frame offsets: 
#        150
#        16275
#        32427
#        48325
#        66387
#        83687
#        95240
#        113707
#        130027
#        147440
#        167152
#        187992
#        205417
#        222605
#        234675
#        249015
#
# Disc length: 3532 seconds
#
# Revision: 0
# Processed by: cddbd v1.5.2PL0 Copyright (c) Steve Scherf et al.
# Submitted via: ExactAudioCopy v0.99pb4
#
DISCID=e10dca10
DTITLE=Willie Nelson  - Willie Nelson - Love Songs
DYEAR=1900
DGENRE=Country
TTITLE0=To All the Girls I've Loved Before (with Julio Iglesias)
TTITLE1=Blue Skies
TTITLE2=Let It Be Me
TTITLE3=Tenderly
TTITLE4=Harbor Lights
TTITLE5=Mona Lisa
TTITLE6=To Each His Own
TTITLE7=Over the Rainbow
TTITLE8=Seven Spanish Angels (with Ray Charles)
TTITLE9=Georgia On My Mind
TTITLE10=Bridge Over Troubled Waters
TTITLE11=Without a Song
TTITLE12=Unchained Melody
TTITLE13=That Lucky Old Sun
TTITLE14=In My Mother's Eyes
TTITLE15=Always On My Mind
EXTD=
EXTT0=
EXTT1=
EXTT2=
EXTT3=
EXTT4=
EXTT5=
EXTT6=
EXTT7=
EXTT8=
EXTT9=
EXTT10=
EXTT11=
EXTT12=
EXTT13=
EXTT14=
EXTT15=
PLAYORDER=
